<svg width="23" height="23" viewBox="0 0 23 23" fill="none" xmlns="http://www.w3.org/2000/svg">
<path d="M18.9657 13.8671C18.4744 13.3555 17.8817 13.082 17.2536 13.082C16.6306 13.082 16.0329 13.3505 15.5213 13.8621L13.9206 15.4576C13.7889 15.3867 13.6572 15.3209 13.5306 15.255C13.3482 15.1639 13.176 15.0777 13.0291 14.9866C11.5298 14.0343 10.1672 12.7933 8.86033 11.1875C8.22716 10.3872 7.80167 9.71352 7.49268 9.0297C7.90804 8.64979 8.29301 8.25469 8.66785 7.87479C8.80968 7.73296 8.95151 7.58607 9.09334 7.44424C10.1571 6.38051 10.1571 5.00273 9.09334 3.939L7.71049 2.55616C7.55347 2.39913 7.39138 2.23704 7.23942 2.07495C6.93549 1.7609 6.61638 1.43671 6.28713 1.13279C5.79579 0.646517 5.20821 0.388184 4.59023 0.388184C3.97226 0.388184 3.37454 0.646517 2.86801 1.13279C2.86294 1.13786 2.86294 1.13786 2.85788 1.14292L1.13565 2.88034C0.487286 3.52871 0.117514 4.31891 0.0364682 5.23574C-0.0851005 6.71482 0.350521 8.0926 0.684835 8.99424C1.50542 11.2078 2.73124 13.2593 4.55984 15.4576C6.77847 18.1068 9.44792 20.1988 12.4973 21.6728C13.6623 22.225 15.2174 22.8784 16.9548 22.9898C17.0612 22.9949 17.1726 23 17.2739 23C18.444 23 19.4267 22.5795 20.1966 21.7438C20.2017 21.7336 20.2118 21.7286 20.2169 21.7184C20.4803 21.3993 20.7842 21.1106 21.1033 20.8016C21.3211 20.5939 21.544 20.3761 21.7618 20.1482C22.2633 19.6264 22.5267 19.0186 22.5267 18.3956C22.5267 17.7675 22.2582 17.1647 21.7466 16.6581L18.9657 13.8671ZM20.7791 19.2009C20.7741 19.2009 20.7741 19.206 20.7791 19.2009C20.5816 19.4137 20.379 19.6062 20.1612 19.8189C19.8319 20.133 19.4976 20.4622 19.1835 20.832C18.6719 21.3791 18.0692 21.6374 17.279 21.6374C17.203 21.6374 17.1219 21.6374 17.046 21.6323C15.5415 21.5361 14.1435 20.9485 13.095 20.447C10.228 19.0591 7.7105 17.0887 5.6185 14.5915C3.89121 12.5096 2.73631 10.5848 1.97144 8.51809C1.50036 7.25682 1.32814 6.27414 1.40412 5.34718C1.45477 4.75453 1.68271 4.26319 2.10314 3.84276L3.83043 2.11547C4.07863 1.88247 4.34203 1.75583 4.60036 1.75583C4.91948 1.75583 5.17781 1.94832 5.3399 2.11041C5.34497 2.11547 5.35004 2.12054 5.3551 2.1256C5.66409 2.41433 5.95788 2.71319 6.26687 3.0323C6.42389 3.1944 6.58598 3.35649 6.74808 3.52364L8.13092 4.90649C8.66785 5.44342 8.66785 5.93982 8.13092 6.47675C7.98403 6.62365 7.84219 6.77054 7.6953 6.91237C7.26981 7.34799 6.86458 7.75322 6.42389 8.14832C6.41376 8.15845 6.40363 8.16352 6.39857 8.17365C5.96294 8.60927 6.04399 9.03476 6.13517 9.32349C6.14023 9.33868 6.1453 9.35388 6.15036 9.36907C6.51 10.2403 7.01654 11.0609 7.78648 12.0385L7.79154 12.0436C9.18958 13.7658 10.6636 15.1081 12.2896 16.1364C12.4973 16.2681 12.71 16.3745 12.9126 16.4758C13.095 16.567 13.2672 16.6531 13.4141 16.7442C13.4344 16.7544 13.4546 16.7696 13.4749 16.7797C13.6471 16.8658 13.8092 16.9063 13.9764 16.9063C14.3968 16.9063 14.6602 16.6429 14.7463 16.5568L16.4786 14.8245C16.6509 14.6523 16.9244 14.4446 17.2435 14.4446C17.5576 14.4446 17.8159 14.6421 17.9729 14.8143C17.978 14.8194 17.978 14.8194 17.9831 14.8245L20.7741 17.6155C21.2958 18.1322 21.2958 18.664 20.7791 19.2009Z" fill="#31BEF4"/>
</svg>
