<svg width="279" height="101" viewBox="0 0 279 101" fill="none" xmlns="http://www.w3.org/2000/svg">
<g filter="url(#filter0_d_360_5356)">
<path fill-rule="evenodd" clip-rule="evenodd" d="M25 10C19.4772 10 15 14.4772 15 20V38.0164C15.1653 38.0055 15.332 38 15.5 38C19.6421 38 23 41.3579 23 45.5C23 49.6421 19.6421 53 15.5 53C15.332 53 15.1653 52.9945 15 52.9836V71C15 76.5229 19.4772 81 25 81H254C259.523 81 264 76.5229 264 71V20C264 14.4772 259.523 10 254 10H25Z" fill="white"/>
</g>
<defs>
<filter id="filter0_d_360_5356" x="0" y="0" width="279" height="101" filterUnits="userSpaceOnUse" color-interpolation-filters="sRGB">
<feFlood flood-opacity="0" result="BackgroundImageFix"/>
<feColorMatrix in="SourceAlpha" type="matrix" values="0 0 0 0 0 0 0 0 0 0 0 0 0 0 0 0 0 0 127 0" result="hardAlpha"/>
<feOffset dy="5"/>
<feGaussianBlur stdDeviation="7.5"/>
<feComposite in2="hardAlpha" operator="out"/>
<feColorMatrix type="matrix" values="0 0 0 0 0.129412 0 0 0 0 0.176471 0 0 0 0 0.333333 0 0 0 0.1 0"/>
<feBlend mode="normal" in2="BackgroundImageFix" result="effect1_dropShadow_360_5356"/>
<feBlend mode="normal" in="SourceGraphic" in2="effect1_dropShadow_360_5356" result="shape"/>
</filter>
</defs>
</svg>
